<svg width="35" height="35" viewBox="0 0 35 35" fill="none" xmlns="http://www.w3.org/2000/svg">
<path d="M17.5391 8.47656C22.4609 8.47656 26.5234 12.5391 26.5234 17.4609C26.5234 22.4609 22.4609 26.4453 17.5391 26.4453C12.5391 26.4453 8.55469 22.4609 8.55469 17.4609C8.55469 12.5391 12.5391 8.47656 17.5391 8.47656ZM17.5391 23.3203C20.7422 23.3203 23.3203 20.7422 23.3203 17.4609C23.3203 14.2578 20.7422 11.6797 17.5391 11.6797C14.2578 11.6797 11.6797 14.2578 11.6797 17.4609C11.6797 20.7422 14.3359 23.3203 17.5391 23.3203ZM28.9453 8.16406C28.9453 9.33594 28.0078 10.2734 26.8359 10.2734C25.6641 10.2734 24.7266 9.33594 24.7266 8.16406C24.7266 6.99219 25.6641 6.05469 26.8359 6.05469C28.0078 6.05469 28.9453 6.99219 28.9453 8.16406ZM34.8828 10.2734C35.0391 13.1641 35.0391 21.8359 34.8828 24.7266C34.7266 27.5391 34.1016 29.9609 32.0703 32.0703C30.0391 34.1016 27.5391 34.7266 24.7266 34.8828C21.8359 35.0391 13.1641 35.0391 10.2734 34.8828C7.46094 34.7266 5.03906 34.1016 2.92969 32.0703C0.898438 29.9609 0.273438 27.5391 0.117188 24.7266C-0.0390625 21.8359 -0.0390625 13.1641 0.117188 10.2734C0.273438 7.46094 0.898438 4.96094 2.92969 2.92969C5.03906 0.898438 7.46094 0.273438 10.2734 0.117188C13.1641 -0.0390625 21.8359 -0.0390625 24.7266 0.117188C27.5391 0.273438 30.0391 0.898438 32.0703 2.92969C34.1016 4.96094 34.7266 7.46094 34.8828 10.2734ZM31.1328 27.7734C32.0703 25.5078 31.8359 20.0391 31.8359 17.4609C31.8359 14.9609 32.0703 9.49219 31.1328 7.14844C30.5078 5.66406 29.3359 4.41406 27.8516 3.86719C25.5078 2.92969 20.0391 3.16406 17.5391 3.16406C14.9609 3.16406 9.49219 2.92969 7.22656 3.86719C5.66406 4.49219 4.49219 5.66406 3.86719 7.14844C2.92969 9.49219 3.16406 14.9609 3.16406 17.4609C3.16406 20.0391 2.92969 25.5078 3.86719 27.7734C4.49219 29.3359 5.66406 30.5078 7.22656 31.1328C9.49219 32.0703 14.9609 31.8359 17.5391 31.8359C20.0391 31.8359 25.5078 32.0703 27.8516 31.1328C29.3359 30.5078 30.5859 29.3359 31.1328 27.7734Z" fill="white" fill-opacity="0.8"/>
</svg>
