<svg width="34" height="34" viewBox="0 0 34 34" fill="none" xmlns="http://www.w3.org/2000/svg">
<path d="M20.7017 8.43311V14.2524L22.7374 15.5327C22.8109 15.5485 22.887 15.5485 22.9605 15.5327L31.7134 9.63161C31.707 9.34521 31.6022 9.06974 31.4167 8.85148C31.2311 8.63323 30.9761 8.4855 30.6945 8.43311H20.7017Z" fill="#0072C6"/>
<path d="M20.7018 16.423L22.558 17.698C22.6448 17.7512 22.7446 17.7793 22.8464 17.7793C22.9482 17.7793 23.0481 17.7512 23.1349 17.698C22.8161 17.8903 31.7125 11.9839 31.7125 11.9839V22.679C31.7357 22.8957 31.7112 23.1149 31.6409 23.3212C31.5705 23.5275 31.4559 23.7159 31.3051 23.8733C31.1543 24.0306 30.971 24.1532 30.7679 24.2323C30.5648 24.3114 30.3468 24.3451 30.1293 24.3312H20.7007L20.7018 16.423ZM11.0925 13.7402C10.7841 13.7388 10.4811 13.8209 10.2155 13.9776C9.94993 14.1343 9.73164 14.3599 9.58377 14.6306C9.18009 15.3481 8.98642 16.1648 9.0249 16.9872C8.98295 17.8079 9.17689 18.6235 9.58377 19.3374C9.73094 19.597 9.94382 19.8133 10.201 19.9645C10.4583 20.1157 10.7508 20.1966 11.0491 20.1989C11.3475 20.2013 11.6412 20.1251 11.9008 19.978C12.1604 19.8309 12.3767 19.618 12.528 19.3608C12.9312 18.6504 13.1212 17.8389 13.0751 17.0233C13.1212 16.1822 12.9375 15.3445 12.5439 14.5998C12.4028 14.3382 12.1932 14.12 11.9375 13.9685C11.6818 13.8171 11.3897 13.7382 11.0925 13.7402Z" fill="#0072C6"/>
<path d="M2.2876 5.47719V28.2434L19.6063 31.875V2.125L2.2876 5.47719ZM13.8773 20.7092C13.5534 21.166 13.1227 21.5366 12.6226 21.7886C12.1226 22.0407 11.5685 22.1666 11.0086 22.1552C10.4628 22.1649 9.92282 22.0427 9.43445 21.7989C8.94609 21.5551 8.52383 21.1969 8.2036 20.7549C7.44418 19.6945 7.06426 18.4091 7.12516 17.1063C7.06071 15.7395 7.44749 14.3895 8.22591 13.2642C8.55417 12.799 8.99175 12.4216 9.50014 12.1651C10.0085 11.9087 10.5722 11.7812 11.1414 11.7938C11.6832 11.7832 12.2192 11.9057 12.7027 12.1504C13.1861 12.3951 13.6022 12.7545 13.9145 13.1973C14.6664 14.2807 15.0398 15.5819 14.977 16.8991C15.0435 18.256 14.6566 19.5964 13.8773 20.7092Z" fill="#0072C6"/>
</svg>
