<svg width="17" height="16" viewBox="0 0 17 16" fill="none" xmlns="http://www.w3.org/2000/svg">
<path d="M6.26658 5.64871C5.89325 5.86205 5.68525 6.23005 5.64258 6.75271C5.59991 7.23271 5.69058 7.77138 5.91458 8.36871C6.13858 8.96605 6.43725 9.51005 6.81058 10.0007C7.21591 10.5127 7.63192 10.87 8.05858 11.0727C8.53858 11.2967 8.98125 11.2914 9.38658 11.0567L11.3386 14.4327C10.9866 14.6354 10.6986 14.7794 10.4746 14.8647C10.1759 14.9714 9.88792 15.014 9.61058 14.9927C9.30125 14.982 8.98658 14.8807 8.66658 14.6887C7.73858 14.1554 6.79458 13.2594 5.83458 12.0007C4.91725 10.7954 4.17058 9.49938 3.59458 8.11271C2.99725 6.66205 2.71458 5.40871 2.74658 4.35271C2.75725 3.99005 2.83191 3.68071 2.97058 3.42471C3.09858 3.19005 3.28525 2.97671 3.53058 2.78471C3.70125 2.63538 3.96258 2.46471 4.31458 2.27271L4.55458 2.68871C5.48258 4.29938 6.05325 5.28605 6.26658 5.64871ZM7.06658 5.56871C6.95992 5.62205 6.84791 5.63538 6.73058 5.60871C6.61325 5.58205 6.52791 5.51538 6.47458 5.40871L4.63458 2.20871C4.57058 2.10205 4.55458 1.99271 4.58658 1.88071C4.61858 1.76871 4.68791 1.68071 4.79458 1.61671L5.75458 1.05671C5.86125 1.00338 5.97325 0.990047 6.09058 1.01671C6.20791 1.04338 6.29858 1.11005 6.36258 1.21671L8.20258 4.40071C8.25592 4.50738 8.26925 4.61938 8.24258 4.73671C8.21592 4.85405 8.14925 4.94471 8.04258 5.00871L7.06658 5.56871ZM12.1066 14.2727C11.9999 14.3367 11.8879 14.3527 11.7706 14.3207C11.6532 14.2887 11.5626 14.2194 11.4986 14.1127L9.65858 10.9287C9.60525 10.822 9.59192 10.71 9.61858 10.5927C9.64525 10.4754 9.71192 10.3847 9.81858 10.3207L10.7946 9.77671C10.9012 9.71271 11.0106 9.69671 11.1226 9.72871C11.2346 9.76071 11.3226 9.83005 11.3866 9.93671L13.2266 13.1207C13.2906 13.2274 13.3066 13.3394 13.2746 13.4567C13.2426 13.574 13.1732 13.6594 13.0666 13.7127L12.1066 14.2727Z" fill="#3CA948"/>
</svg>
