<svg width="26" height="26" viewBox="0 0 26 26" fill="none" xmlns="http://www.w3.org/2000/svg">
<path d="M0.549386 12.818C0.548782 14.998 1.1184 17.1266 2.20152 19.0028L0.445801 25.4132L7.00605 23.6931C8.82054 24.6809 10.8535 25.1985 12.9194 25.1986H12.9249C19.7449 25.1986 25.2965 19.649 25.2995 12.8277C25.3008 9.52238 24.0147 6.41423 21.6781 4.07582C19.3419 1.73762 16.2349 0.44924 12.9244 0.447731C6.10355 0.447731 0.552302 5.99707 0.549486 12.818" fill="url(#paint0_linear_871_4192)"/>
<path d="M0.107608 12.814C0.106904 15.0724 0.696936 17.2772 1.81867 19.2205L0 25.8607L6.79548 24.079C8.66785 25.0998 10.776 25.6381 12.9211 25.6389H12.9266C19.9913 25.6389 25.7424 19.8896 25.7454 12.8242C25.7466 9.40009 24.4143 6.1802 21.9942 3.75802C19.5738 1.33615 16.3557 0.00140795 12.9266 0C5.8607 0 0.110424 5.74846 0.107608 12.814ZM4.15456 18.8859L3.90083 18.4831C2.83421 16.7871 2.27123 14.8272 2.27203 12.8148C2.27424 6.94211 7.05364 2.16422 12.9306 2.16422C15.7767 2.16543 18.4514 3.27489 20.4632 5.28786C22.4748 7.30103 23.5818 9.97715 23.5811 12.8234C23.5785 18.6961 18.799 23.4746 12.9266 23.4746H12.9224C11.0103 23.4736 9.13499 22.9601 7.49955 21.9897L7.11036 21.7589L3.07778 22.8162L4.15456 18.8859Z" fill="url(#paint1_linear_871_4192)"/>
<path d="M9.72278 7.45691C9.48282 6.9236 9.2303 6.91284 9.00211 6.90349C8.81525 6.89544 8.60165 6.89604 8.38824 6.89604C8.17463 6.89604 7.82757 6.9764 7.53422 7.29671C7.24056 7.61732 6.41309 8.39209 6.41309 9.96789C6.41309 11.5437 7.56087 13.0667 7.72087 13.2806C7.88108 13.4941 9.93669 16.8314 13.1923 18.1152C15.898 19.1821 16.4486 18.9699 17.0358 18.9164C17.6231 18.8631 18.9309 18.1419 19.1977 17.3939C19.4647 16.6461 19.4647 16.0051 19.3846 15.8711C19.3046 15.7377 19.091 15.6575 18.7707 15.4974C18.4504 15.3373 16.8756 14.5623 16.582 14.4554C16.2884 14.3486 16.0749 14.2953 15.8612 14.616C15.6476 14.9363 15.0343 15.6575 14.8473 15.8711C14.6606 16.0852 14.4736 16.1119 14.1534 15.9517C13.8329 15.791 12.8014 15.4532 11.5776 14.3621C10.6254 13.5131 9.98254 12.4647 9.79569 12.144C9.60883 11.8238 9.77568 11.6502 9.93628 11.4906C10.0802 11.3471 10.2567 11.1166 10.417 10.9296C10.5767 10.7426 10.63 10.6091 10.7368 10.3955C10.8437 10.1817 10.7902 9.99464 10.7103 9.83444C10.63 9.67423 10.0076 8.09019 9.72278 7.45691Z" fill="white"/>
<defs>
<linearGradient id="paint0_linear_871_4192" x1="1243.13" y1="2497" x2="1243.13" y2="0.447731" gradientUnits="userSpaceOnUse">
<stop stop-color="#1FAF38"/>
<stop offset="1" stop-color="#60D669"/>
</linearGradient>
<linearGradient id="paint1_linear_871_4192" x1="1287.27" y1="2586.07" x2="1287.27" y2="0" gradientUnits="userSpaceOnUse">
<stop stop-color="#F9F9F9"/>
<stop offset="1" stop-color="white"/>
</linearGradient>
</defs>
</svg>
