<svg width="45" height="31" viewBox="0 0 45 31" fill="none" xmlns="http://www.w3.org/2000/svg">
<path d="M43.1901 4.92448C44.1589 8.3151 44.1589 15.5807 44.1589 15.5807C44.1589 15.5807 44.1589 22.7656 43.1901 26.237C42.7057 28.1745 41.1719 29.6276 39.3151 30.112C35.8438 31 22.1198 31 22.1198 31C22.1198 31 8.3151 31 4.84375 30.112C2.98698 29.6276 1.45312 28.1745 0.96875 26.237C0 22.7656 0 15.5807 0 15.5807C0 15.5807 0 8.3151 0.96875 4.92448C1.45312 2.98698 2.98698 1.45312 4.84375 0.96875C8.3151 0 22.1198 0 22.1198 0C22.1198 0 35.8438 0 39.3151 0.96875C41.1719 1.45312 42.7057 2.98698 43.1901 4.92448ZM17.599 22.1198L29.0625 15.5807L17.599 9.04167V22.1198Z" fill="white" fill-opacity="0.8"/>
</svg>
